<?xml version="1.0" standalone="no"?>
<!DOCTYPE svg PUBLIC "-//W3C//DTD SVG 20010904//EN"
 "http://www.w3.org/TR/2001/REC-SVG-20010904/DTD/svg10.dtd">
<svg version="1.0" xmlns="http://www.w3.org/2000/svg"
 width="512.000000pt" height="512.000000pt" viewBox="0 0 512.000000 512.000000"
 preserveAspectRatio="xMidYMid meet">

<g transform="translate(0.000000,512.000000) scale(0.100000,-0.100000)"
fill="#000000" stroke="none">
<path d="M2316 5105 c-53 -19 -103 -70 -125 -129 -15 -41 -25 -52 -52 -62 -19
-6 -70 -29 -114 -52 -80 -40 -81 -40 -104 -21 -57 46 -121 10 -121 -68 0 -46
-3 -51 -78 -129 -169 -174 -291 -415 -317 -627 l-7 -57 -85 0 c-118 0 -173
-30 -208 -113 -21 -50 -21 -214 0 -265 35 -83 87 -113 205 -120 l86 -5 -19
-56 c-68 -200 70 -426 288 -471 52 -11 55 -13 60 -48 31 -188 148 -394 284
-498 l51 -39 -3 -108 -2 -108 -510 -200 c-649 -253 -625 -242 -717 -312 -127
-95 -223 -234 -279 -402 -23 -69 -24 -78 -27 -555 -3 -544 -4 -539 68 -604 21
-19 56 -39 77 -45 53 -15 3733 -15 3786 0 49 13 105 63 128 114 16 34 19 68
19 227 l0 187 -26 20 c-30 24 -43 26 -77 10 -41 -18 -47 -49 -47 -224 0 -158
-1 -164 -22 -179 -19 -14 -63 -16 -280 -16 l-258 0 0 439 c0 428 0 439 -21
465 -26 33 -79 36 -109 6 -19 -19 -20 -33 -20 -465 l0 -445 -555 0 -555 0 0
555 c0 542 0 555 -20 575 -27 27 -81 26 -106 -1 -18 -20 -19 -46 -22 -575 l-2
-554 -550 0 -550 0 0 445 c0 432 -1 446 -20 465 -30 30 -83 27 -109 -6 -21
-26 -21 -37 -21 -465 l0 -439 -259 0 c-232 0 -261 2 -280 18 l-22 17 3 470 3
470 27 73 c14 40 45 102 69 138 49 76 158 180 220 211 24 12 187 78 362 146
l318 125 198 -247 c109 -135 207 -254 219 -264 30 -27 83 -36 125 -22 34 12
225 154 262 195 24 26 145 29 166 4 17 -21 217 -177 246 -192 40 -21 108 -15
142 13 16 14 116 133 221 265 106 132 197 240 203 240 23 0 663 -254 702 -278
64 -41 145 -123 190 -192 81 -128 105 -215 105 -388 0 -117 1 -124 25 -147 32
-32 74 -33 104 -1 23 24 23 29 18 178 -5 173 -17 231 -76 353 -72 152 -190
277 -325 346 -34 17 -302 124 -596 238 l-535 207 -3 106 -3 106 56 47 c140
120 250 315 280 497 5 34 8 37 55 47 120 26 219 102 272 208 46 93 49 180 13
299 -6 20 -2 21 77 26 164 11 218 73 218 253 0 183 -57 245 -223 245 l-85 0
-7 57 c-26 213 -143 444 -314 626 -77 81 -81 87 -81 131 0 77 -64 113 -121 67
-22 -18 -24 -18 -93 19 -39 21 -91 45 -116 54 -41 15 -48 23 -63 65 -20 58
-79 115 -134 130 -58 16 -429 13 -477 -4z m452 -151 l22 -15 0 -490 0 -489
-230 0 -230 0 0 489 0 490 22 15 c18 13 56 16 208 16 152 0 190 -3 208 -16z
m-588 -589 l0 -405 -115 0 -115 0 0 343 1 342 25 19 c22 16 193 106 201 106 2
0 3 -182 3 -405z m842 369 c39 -20 89 -47 110 -61 l38 -26 0 -343 0 -344 -115
0 -115 0 0 405 c0 223 2 405 5 405 3 0 38 -16 77 -36z m-1227 -761 c-3 -10
-37 -13 -126 -13 l-121 0 7 48 c20 133 105 328 192 437 l48 60 3 -260 c1 -143
0 -265 -3 -272z m1605 437 c78 -115 147 -284 165 -403 l7 -48 -123 3 -124 3
-3 269 -2 269 21 -19 c12 -10 38 -44 59 -74z m474 -616 c3 -9 6 -49 6 -89 0
-63 -3 -76 -19 -85 -13 -6 -215 -10 -587 -10 l-568 0 -23 -22 c-41 -38 -26
-98 28 -117 20 -7 128 -11 292 -11 l259 0 -5 -272 c-5 -300 -11 -337 -71 -463
-88 -185 -246 -317 -446 -371 -96 -26 -262 -24 -365 5 -127 35 -209 84 -306
181 -69 68 -94 101 -127 170 -68 140 -74 171 -79 478 l-5 272 259 0 c164 0
272 4 292 11 54 19 68 75 29 116 l-21 23 -569 0 c-373 0 -576 4 -589 10 -16 9
-19 22 -19 85 0 40 3 80 6 89 6 14 131 16 1314 16 1183 0 1308 -2 1314 -16z
m-2164 -528 l0 -195 -28 8 c-163 47 -224 224 -122 354 19 24 28 27 86 27 l64
0 0 -194z m1873 134 c53 -104 24 -222 -71 -285 -21 -14 -53 -30 -70 -35 l-32
-9 0 195 0 195 73 -3 72 -3 28 -55z m-1242 -1185 c184 -50 370 -39 555 32 11
4 14 -11 14 -73 0 -49 6 -89 14 -106 14 -27 12 -30 -142 -223 l-156 -195 -66
0 -66 0 -156 195 c-154 193 -156 196 -142 223 8 17 14 57 14 106 0 77 0 78 23
71 12 -4 61 -18 108 -30z m-132 -449 c83 -104 150 -190 149 -191 -46 -42 -185
-142 -190 -137 -41 43 -347 437 -341 440 4 1 51 20 103 41 52 22 102 39 112
38 9 -1 84 -87 167 -191z m975 152 c59 -23 106 -45 106 -50 0 -7 -296 -384
-334 -425 -11 -12 -59 20 -165 110 l-30 25 152 191 c84 105 155 191 159 191 4
0 54 -19 112 -42z"/>
<path d="M1664 859 c-22 -11 -44 -48 -44 -73 0 -7 9 -25 21 -40 l20 -26 269 0
c264 0 270 0 290 22 25 27 26 69 1 99 -19 24 -19 24 -278 26 -166 1 -266 -2
-279 -8z"/>
<path d="M2930 863 c-51 -19 -68 -85 -30 -123 19 -19 33 -20 284 -20 237 0
266 2 285 18 33 26 31 79 -3 109 -27 23 -29 23 -274 22 -136 0 -254 -3 -262
-6z"/>
</g>
</svg>
