<?xml version="1.0" standalone="no"?>
<!DOCTYPE svg PUBLIC "-//W3C//DTD SVG 20010904//EN"
 "http://www.w3.org/TR/2001/REC-SVG-20010904/DTD/svg10.dtd">
<svg version="1.0" xmlns="http://www.w3.org/2000/svg"
 width="512.000000pt" height="512.000000pt" viewBox="0 0 512.000000 512.000000"
 preserveAspectRatio="xMidYMid meet">

<g transform="translate(0.000000,512.000000) scale(0.100000,-0.100000)"
fill="currentColor" stroke="none">
<path d="M3040 5107 c-25 -7 -63 -21 -85 -32 -28 -12 -337 -315 -1012 -989
-780 -778 -978 -981 -1002 -1026 -73 -138 -62 -300 29 -422 l39 -51 -36 -40
c-19 -22 -47 -65 -62 -96 -23 -49 -26 -68 -26 -161 0 -126 20 -180 101 -276
l52 -61 -259 -374 c-143 -206 -266 -393 -275 -416 -22 -58 -15 -177 13 -225
l20 -34 -29 -50 c-53 -89 -130 -247 -166 -339 -66 -167 -45 -302 63 -410 70
-71 141 -99 245 -100 73 0 94 4 147 29 165 76 238 247 183 428 -12 40 -48 129
-81 197 -32 68 -59 128 -59 132 0 5 11 11 25 15 14 3 196 125 406 270 l381
263 61 -52 c97 -82 151 -102 277 -102 94 0 111 3 161 27 30 15 73 43 94 61
l39 34 56 -37 c80 -55 141 -73 235 -73 88 1 143 17 215 63 25 16 477 463 1006
992 1048 1050 990 986 1017 1129 14 76 -3 173 -44 249 -23 44 -174 200 -717
741 -642 641 -691 687 -751 713 -75 33 -191 43 -261 23z m165 -198 c34 -9 134
-105 707 -677 387 -386 675 -681 684 -701 48 -100 20 -181 -101 -301 l-75 -75
-782 783 -783 782 80 80 c114 115 168 137 270 109z m292 -1111 c425 -425 773
-777 773 -783 0 -6 -286 -296 -635 -645 l-635 -635 -782 783 -783 782 635 635
c349 349 639 635 645 635 5 0 358 -348 782 -772z m-1420 -1420 c425 -425 773
-778 773 -784 0 -16 -150 -159 -190 -180 -44 -23 -133 -23 -175 -1 -16 8 -332
319 -702 689 -577 578 -673 679 -682 713 -25 93 -7 139 98 248 46 48 89 87 95
87 6 0 359 -348 783 -772z m-428 -432 c543 -543 512 -504 427 -545 -46 -23
-118 -27 -163 -10 -33 12 -797 770 -820 813 -25 47 -19 108 18 176 17 33 35
60 38 60 3 0 228 -222 500 -494z m-143 -464 c-2 -2 -163 -113 -357 -248 -376
-260 -389 -267 -436 -222 -48 45 -42 58 224 443 l246 356 163 -162 c90 -90
162 -165 160 -167z m-730 -1040 c30 -79 31 -129 2 -172 -60 -88 -172 -92 -241
-10 -56 66 -45 124 61 335 l54 110 51 -100 c27 -55 60 -128 73 -163z"/>
<path d="M2223 3798 c-484 -483 -483 -482 -450 -544 9 -16 276 -288 594 -605
616 -614 608 -608 670 -575 15 8 226 213 468 455 l440 441 0 45 0 45 -595 595
c-586 586 -596 595 -635 595 -39 0 -48 -8 -492 -452z m1132 -1138 l-355 -355
-497 497 -498 498 355 355 355 355 497 -497 498 -498 -355 -355z"/>
</g>
</svg>
