<?xml version="1.0" standalone="no"?>
<!DOCTYPE svg PUBLIC "-//W3C//DTD SVG 20010904//EN"
 "http://www.w3.org/TR/2001/REC-SVG-20010904/DTD/svg10.dtd">
<svg version="1.0" xmlns="http://www.w3.org/2000/svg"
 width="1356.000000pt" height="463.000000pt" viewBox="0 0 1356.000000 463.000000"
 preserveAspectRatio="xMidYMid meet">

<g transform="translate(0.000000,463.000000) scale(0.100000,-0.100000)"
fill="#1A3C57" stroke="none">
<path d="M1414 4437 c-131 -74 -386 -218 -567 -321 -180 -102 -343 -194 -362
-203 l-35 -17 0 -1813 0 -1813 -150 0 -150 0 0 -90 0 -90 1450 0 1450 0 0 111
c0 181 32 273 129 369 62 61 138 104 311 175 152 63 193 84 268 140 76 58 206
211 275 325 28 47 82 131 119 188 38 56 66 107 63 111 -3 5 -60 47 -128 92
-67 46 -248 170 -401 276 -222 154 -282 191 -291 181 -7 -7 -55 -67 -108 -134
-220 -277 -351 -403 -492 -476 -47 -24 -85 -46 -85 -49 0 -13 122 -43 195 -47
64 -3 93 0 143 17 83 28 189 93 252 155 27 27 50 44 50 38 0 -25 -106 -166
-166 -220 -62 -58 -191 -132 -228 -132 -10 0 -16 -4 -14 -10 2 -5 76 -54 165
-108 l162 -99 43 25 c70 42 137 93 246 191 56 51 102 89 102 85 0 -4 -14 -30
-31 -58 -85 -140 -168 -217 -340 -316 -226 -131 -354 -328 -376 -577 l-6 -73
-624 0 -624 0 3 1368 c2 752 4 1665 6 2030 l2 663 98 -52 c53 -29 243 -134
422 -234 179 -100 373 -208 433 -241 l107 -59 0 -1113 c0 -613 4 -1112 8
-1110 4 2 43 23 85 48 l77 45 -3 1134 -2 1134 -185 104 c-386 218 -1046 583
-1054 583 -1 0 -110 -60 -242 -133z m-64 -847 c0 -115 1 -213 1 -217 1 -7
-177 -101 -193 -102 -5 -1 -8 97 -8 217 l0 217 93 47 c50 26 95 47 100 47 4 1
7 -93 7 -209z m-400 -208 l0 -217 -95 -48 c-52 -26 -100 -47 -105 -47 -6 0
-10 81 -10 218 l0 219 98 46 c53 26 100 47 105 47 4 0 7 -98 7 -218z m400
-587 l0 -225 -100 -50 -100 -50 0 222 0 223 98 52 c53 28 98 52 100 52 1 1 2
-100 2 -224z m-400 -205 l0 -220 -100 -50 c-55 -27 -101 -50 -103 -50 -3 0 -5
99 -6 220 l-2 219 98 50 c54 28 101 50 106 50 4 1 7 -98 7 -219z m402 -600
l-3 -220 -99 -50 -100 -50 0 220 0 220 98 49 c53 28 99 50 102 50 3 1 4 -98 2
-219z m-402 -194 l0 -223 -100 -47 c-55 -25 -102 -46 -105 -46 -3 0 -4 98 -3
218 l3 217 100 52 c55 28 101 52 103 52 1 1 2 -100 2 -223z"/>
<path d="M5253 4029 c-173 -85 -460 -439 -633 -779 -85 -167 -190 -350 -255
-443 -120 -173 -265 -239 -453 -207 -100 17 -127 6 -184 -73 -24 -34 -48 -67
-51 -73 -3 -6 108 -87 259 -190 146 -98 329 -223 407 -276 78 -54 144 -94 148
-90 19 21 99 145 99 153 0 6 -23 56 -50 112 -60 121 -69 175 -46 267 35 137
95 226 326 490 260 296 399 486 500 685 72 142 94 215 95 312 0 73 -3 84 -24
107 -31 32 -79 34 -138 5z"/>
<path d="M1960 3545 l0 -225 73 -37 c39 -21 84 -43 100 -50 l27 -12 0 224 0
225 -100 50 -100 50 0 -225z"/>
<path d="M2340 3350 l0 -220 100 -50 100 -50 0 223 0 222 -95 48 c-52 26 -97
47 -100 47 -3 0 -5 -99 -5 -220z"/>
<path d="M8034 3276 c-154 -39 -234 -151 -222 -314 10 -136 68 -201 265 -298
156 -77 173 -95 173 -184 -1 -82 -39 -120 -122 -120 -77 0 -138 59 -138 135
l0 25 -101 0 -102 0 6 -54 c8 -78 43 -150 94 -196 64 -56 127 -75 248 -75 89
0 106 3 157 28 111 54 158 140 158 286 0 150 -48 208 -257 315 -152 77 -174
97 -180 163 -5 59 11 92 58 117 71 38 149 0 169 -84 l12 -50 95 0 96 0 -7 48
c-23 172 -111 255 -286 267 -37 3 -87 -1 -116 -9z"/>
<path d="M8800 3281 c-151 -28 -230 -116 -238 -267 -9 -171 44 -241 263 -349
157 -78 175 -96 175 -183 0 -64 -11 -87 -50 -107 -90 -47 -210 20 -210 117 l0
28 -101 0 -102 0 7 -57 c13 -119 86 -214 190 -250 78 -27 234 -24 304 7 113
49 167 151 160 299 -7 148 -53 202 -263 306 -145 72 -175 103 -175 181 0 45 4
59 24 79 30 30 84 40 131 25 43 -14 65 -45 72 -100 l6 -40 93 0 94 0 0 45 c0
102 -66 202 -160 244 -53 23 -156 33 -220 22z"/>
<path d="M12260 3279 c-77 -15 -148 -57 -185 -108 -61 -83 -67 -128 -63 -456
3 -278 4 -292 26 -340 27 -58 82 -119 132 -145 121 -62 299 -46 408 37 45 34
90 131 98 211 l7 62 -102 0 -101 0 0 -35 c0 -89 -49 -139 -133 -137 -61 1 -94
22 -122 78 -18 36 -20 59 -20 294 0 235 2 258 20 294 28 56 63 79 119 78 89
-2 136 -53 136 -146 l0 -46 101 0 102 0 -7 60 c-17 147 -77 240 -180 279 -62
23 -175 33 -236 20z"/>
<path d="M5540 3265 c0 0 -1 -237 -3 -528 l-2 -527 98 0 97 0 0 184 0 183 113
5 c138 6 198 29 260 98 56 62 77 130 77 247 0 118 -19 178 -75 241 -72 80 -95
86 -348 92 -119 3 -217 5 -217 5z m399 -199 c36 -35 54 -106 45 -180 -14 -107
-52 -136 -179 -136 l-75 0 0 176 0 176 89 -4 c83 -3 92 -5 120 -32z"/>
<path d="M6330 2738 l0 -528 100 0 100 0 0 200 0 200 48 0 48 0 81 -197 80
-198 108 -3 c84 -2 106 0 102 10 -3 7 -44 102 -91 211 -47 109 -86 202 -86
207 0 6 6 10 14 10 8 0 35 20 60 44 62 60 90 152 84 269 -7 134 -53 212 -153
265 -49 26 -56 27 -273 32 l-222 5 0 -527z m387 342 c46 -28 63 -67 63 -148 0
-55 -5 -76 -23 -103 -32 -47 -61 -59 -149 -59 l-78 0 0 165 0 165 78 0 c59 0
85 -5 109 -20z"/>
<path d="M7140 2738 l0 -528 280 0 280 0 0 90 0 90 -185 0 -185 0 0 135 0 135
150 0 150 0 0 85 0 85 -150 0 -150 0 0 130 0 130 180 0 181 0 -3 85 -3 86
-273 2 -272 2 0 -527z"/>
<path d="M9347 3263 c-1 -1 -1 -238 1 -527 l2 -526 275 0 275 0 0 90 0 90
-180 0 -180 0 0 135 0 135 145 0 145 0 0 85 0 85 -145 0 -145 0 0 130 0 130
175 0 175 0 0 88 0 87 -271 0 c-149 0 -271 -1 -272 -2z"/>
<path d="M10050 2738 l0 -528 95 0 95 0 0 200 0 200 50 0 51 0 28 -62 c15 -35
52 -125 82 -200 l54 -138 107 0 107 0 -93 214 -94 214 44 30 c80 57 116 141
117 272 0 144 -43 229 -144 285 l-54 30 -223 5 -222 5 0 -527z m390 340 c83
-57 77 -248 -9 -292 -20 -11 -57 -16 -111 -16 l-80 0 0 165 0 165 84 0 c70 0
88 -4 116 -22z"/>
<path d="M10765 3250 c7 -25 180 -743 216 -897 l34 -143 115 0 116 0 37 153
c20 83 78 318 127 520 50 203 90 371 90 375 0 4 -44 6 -97 5 l-98 -1 -72 -339
c-39 -186 -78 -367 -86 -403 l-14 -65 -11 55 c-6 30 -43 210 -82 399 -39 190
-72 347 -74 349 -2 2 -50 4 -105 5 -85 2 -100 0 -96 -13z"/>
<path d="M11640 2738 l0 -528 95 0 95 0 0 528 0 527 -95 0 -95 0 0 -527z"/>
<path d="M12840 2738 l0 -528 275 0 275 0 0 90 0 90 -180 0 -181 0 3 133 3
132 148 3 147 3 0 84 0 85 -150 0 -150 0 0 130 0 130 176 0 176 0 -4 85 -3 86
-268 2 -267 2 0 -527z"/>
<path d="M1960 2756 l0 -221 110 -56 110 -55 0 220 0 221 -110 56 -110 55 0
-220z"/>
<path d="M2340 2563 l0 -223 100 -50 100 -50 0 222 0 223 -100 51 -100 51 0
-224z"/>
<path d="M3534 2257 l-82 -112 37 -26 c29 -20 516 -354 725 -496 26 -18 52
-33 56 -33 15 0 162 222 153 230 -23 21 -799 551 -805 550 -2 -1 -40 -51 -84
-113z"/>
<path d="M7820 1825 c-15 -18 4 -28 57 -32 45 -2 76 18 51 34 -21 13 -97 12
-108 -2z"/>
<path d="M5540 1625 c0 -138 1 -145 20 -145 19 0 20 7 20 103 l0 102 35 -80
c19 -44 35 -81 35 -82 0 -2 6 -3 14 -3 7 0 29 35 49 78 l36 77 1 -97 c0 -98 0
-98 25 -98 l25 0 0 145 0 145 -30 0 c-27 0 -32 -6 -67 -81 l-37 -81 -37 81
c-33 71 -41 81 -63 81 l-26 0 0 -145z"/>
<path d="M5955 1758 c-29 -80 -95 -270 -95 -274 0 -2 11 -4 24 -4 18 0 25 8
32 33 9 30 13 32 61 35 51 3 51 3 63 -33 9 -28 17 -35 36 -35 20 0 24 4 20 18
-3 9 -26 73 -50 142 -36 102 -48 126 -65 128 -12 2 -23 -3 -26 -10z m34 -80
c5 -13 12 -38 16 -55 6 -32 6 -33 -28 -33 l-34 0 16 55 c9 30 17 55 19 55 1 0
6 -10 11 -22z"/>
<path d="M6160 1626 l0 -146 26 0 26 0 -4 95 c-1 52 -2 95 -1 95 1 0 27 -43
58 -95 40 -69 61 -95 75 -95 19 0 20 7 20 145 0 137 -1 145 -20 145 -18 0 -20
-8 -22 -97 l-3 -97 -55 95 c-40 69 -61 95 -78 97 -22 3 -22 3 -22 -142z"/>
<path d="M6450 1654 c0 -114 0 -116 29 -145 23 -23 38 -29 71 -29 33 0 48 6
71 29 29 29 29 31 29 145 l0 116 -25 0 c-24 0 -24 0 -27 -112 -3 -109 -4 -113
-28 -125 -20 -10 -29 -10 -45 1 -18 12 -20 26 -23 125 -3 111 -3 111 -27 111
l-25 0 0 -116z"/>
<path d="M6719 1768 c-12 -42 -9 -48 31 -48 l40 0 0 -120 0 -120 25 0 25 0 0
120 0 120 35 0 c31 0 35 3 35 25 0 25 0 25 -95 25 -52 0 -95 -1 -96 -2z"/>
<path d="M6980 1625 l0 -145 80 0 c79 0 80 0 80 25 0 24 -3 25 -59 25 l-59 0
0 40 -1 40 50 0 c42 0 49 3 49 19 0 17 -8 20 -47 23 -46 3 -48 4 -51 36 l-3
32 60 0 c58 0 61 1 61 25 0 25 -1 25 -80 25 l-80 0 0 -145z"/>
<path d="M7220 1625 c0 -138 1 -145 20 -145 19 0 20 7 20 98 l0 97 58 -97 c45
-78 62 -98 80 -98 23 0 23 0 20 143 -3 134 -4 142 -23 142 -19 0 -20 -7 -20
-93 0 -50 -2 -92 -5 -92 -3 0 -29 43 -59 95 -38 68 -58 95 -72 95 -18 0 -19
-9 -19 -145z"/>
<path d="M7561 1757 c-61 -31 -87 -123 -56 -202 35 -92 151 -103 194 -18 15
30 14 33 -12 33 -12 0 -28 -9 -35 -20 -8 -14 -23 -20 -47 -20 -28 0 -37 5 -50
30 -26 50 -16 129 19 152 22 15 66 8 78 -12 13 -21 58 -28 58 -9 0 6 -15 26
-34 45 -37 37 -72 43 -115 21z"/>
<path d="M7845 1758 c-29 -80 -95 -270 -95 -274 0 -2 11 -4 24 -4 18 0 25 8
32 33 9 30 13 32 61 35 51 3 51 3 63 -33 9 -28 17 -35 36 -35 29 0 32 -13 -31
165 -35 98 -46 121 -64 123 -12 2 -23 -3 -26 -10z m43 -103 c17 -63 16 -65
-22 -65 l-33 0 16 55 c9 30 18 55 21 55 3 0 11 -20 18 -45z"/>
<path d="M8092 1757 c-33 -15 -62 -78 -62 -132 0 -88 42 -145 107 -145 71 0
110 39 120 119 14 120 -73 203 -165 158z m92 -53 c22 -21 30 -57 23 -105 -7
-52 -22 -69 -63 -69 -48 0 -68 33 -62 105 3 29 10 61 17 69 17 21 65 20 85 0z"/>
<path d="M8440 1626 l0 -146 85 0 c84 0 85 0 85 25 0 24 -3 25 -60 25 l-60 0
0 40 0 40 50 0 c43 0 50 3 50 20 0 17 -7 20 -50 20 l-50 0 0 35 0 35 61 0 c57
0 60 1 57 23 -3 20 -9 22 -85 25 l-83 4 0 -146z"/>
<path d="M8689 1763 c-1 -5 -2 -70 -3 -145 -1 -137 -1 -138 22 -138 21 0 22 3
22 98 l0 97 35 -75 c19 -41 40 -76 48 -78 9 -2 27 26 50 75 l36 78 0 -97 c1
-98 1 -98 26 -98 l25 0 0 139 c0 88 -4 142 -11 146 -5 4 -20 4 -33 1 -16 -4
-31 -26 -56 -83 l-34 -77 -39 82 c-32 70 -41 82 -62 82 -14 0 -25 -3 -26 -7z"/>
<path d="M9140 1625 l0 -145 25 0 c24 0 25 3 25 60 l0 60 55 0 c52 0 55 1 55
25 0 24 -3 25 -55 25 l-55 0 0 35 0 35 60 0 c57 0 60 1 60 25 0 25 -1 25 -85
25 l-85 0 0 -145z"/>
<path d="M9420 1767 c0 -3 -85 -243 -95 -269 -6 -14 -2 -18 18 -18 20 0 28 7
37 35 12 36 12 36 63 33 48 -3 52 -5 61 -35 7 -25 14 -33 32 -33 13 0 24 6 23
13 0 6 -22 70 -47 141 -40 109 -51 130 -69 133 -13 1 -23 2 -23 0z m27 -175
c-16 -2 -31 -1 -34 2 -4 4 5 43 24 96 3 9 12 -9 22 -40 l17 -55 -29 -3z"/>
<path d="M9651 1745 c-54 -46 -64 -168 -18 -226 28 -37 96 -51 138 -29 16 9
49 58 49 75 0 14 -47 2 -58 -15 -15 -24 -64 -27 -86 -5 -33 33 -32 121 1 158
22 23 70 22 85 -3 7 -11 23 -20 35 -20 27 0 27 1 11 35 -26 56 -107 72 -157
30z"/>
<path d="M9890 1625 l0 -145 25 0 c24 0 25 3 25 60 l0 60 50 0 50 0 0 -60 c0
-57 1 -60 25 -60 l25 0 0 145 0 145 -25 0 c-24 0 -25 -3 -25 -60 l0 -60 -50 0
-50 0 0 60 c0 57 -1 60 -25 60 l-25 0 0 -145z"/>
<path d="M10243 1738 c-6 -18 -29 -84 -51 -146 l-40 -113 26 3 c20 2 29 11 36
36 9 31 11 32 62 32 53 0 53 0 60 -35 5 -28 11 -35 30 -35 13 0 24 3 24 8 0 4
-21 69 -47 145 -41 119 -50 137 -68 137 -16 0 -25 -9 -32 -32z m61 -120 c6
-27 5 -28 -29 -28 -19 0 -35 1 -35 3 0 2 7 28 16 58 l17 54 12 -30 c7 -16 15
-42 19 -57z"/>
<path d="M10460 1626 l0 -146 58 0 c31 0 68 6 81 13 84 43 95 201 17 252 -14
10 -55 20 -91 23 l-65 5 0 -147z m135 69 c19 -18 25 -35 25 -70 0 -56 -32 -95
-80 -95 l-30 0 0 95 0 95 30 0 c19 0 40 -9 55 -25z"/>
<path d="M10805 1758 c-42 -113 -95 -264 -95 -270 0 -4 11 -8 24 -8 18 0 25 8
32 33 9 30 13 32 61 35 51 3 51 3 63 -33 9 -28 17 -35 37 -35 20 0 24 4 18 18
-4 9 -26 73 -50 142 -35 103 -47 126 -64 128 -12 2 -23 -3 -26 -10z m34 -80
c5 -13 12 -38 16 -55 6 -32 6 -33 -28 -33 l-34 0 16 55 c9 30 17 55 19 55 1 0
6 -10 11 -22z"/>
<path d="M11044 1758 c-23 -11 -44 -48 -44 -77 0 -32 35 -64 86 -81 53 -16 69
-45 40 -69 -21 -18 -67 -5 -73 19 -7 28 -53 27 -53 0 0 -38 44 -70 95 -70 120
0 129 139 11 169 -44 11 -66 37 -51 61 11 18 64 11 75 -9 6 -13 17 -17 30 -14
27 7 25 29 -5 58 -26 27 -72 32 -111 13z"/>
<path d="M11380 1626 l0 -146 25 0 c23 0 25 3 25 50 l0 50 39 0 c75 0 121 72
87 138 -18 36 -33 42 -113 48 l-63 6 0 -146z m124 78 c26 -25 16 -61 -20 -74
-39 -15 -54 -3 -54 46 0 42 1 44 29 44 16 0 37 -7 45 -16z"/>
<path d="M11640 1625 l0 -145 25 0 c24 0 25 3 25 59 0 55 2 60 21 58 15 -1 29
-18 50 -59 24 -47 34 -58 54 -58 14 0 25 2 25 5 0 3 -11 28 -25 56 l-26 50 21
26 c21 28 27 82 10 113 -12 23 -59 37 -127 39 l-53 1 0 -145z m135 55 c0 -34
-1 -35 -42 -38 l-43 -3 0 41 0 41 43 -3 c41 -3 42 -4 42 -38z"/>
<path d="M11920 1625 l0 -145 80 0 c79 0 80 0 80 25 0 24 -3 25 -60 25 l-60 0
0 40 0 40 50 0 c43 0 50 3 50 20 0 17 -7 20 -50 20 l-50 0 0 35 0 35 60 0 c56
0 60 1 60 24 0 22 -3 23 -80 25 l-80 2 0 -146z"/>
<path d="M12160 1624 l0 -147 71 5 c63 5 75 9 102 36 26 26 31 40 34 89 7 106
-47 163 -154 163 l-53 0 0 -146z m139 70 c48 -61 14 -164 -55 -164 l-34 0 0
95 0 95 34 0 c25 0 40 -7 55 -26z"/>
<path d="M12440 1625 l0 -145 25 0 25 0 0 145 0 145 -25 0 -25 0 0 -145z"/>
<path d="M12649 1743 c-24 -61 -89 -248 -89 -255 0 -5 11 -8 24 -8 18 0 25 8
32 33 9 30 13 32 60 35 50 3 51 2 60 -30 8 -26 16 -34 37 -36 l27 -3 -50 142
c-27 78 -50 144 -50 146 0 1 -9 3 -20 3 -13 0 -24 -10 -31 -27z m57 -127 c6
-25 4 -26 -31 -26 -28 0 -36 4 -32 14 3 8 11 33 18 57 l13 42 13 -30 c6 -17
15 -42 19 -57z"/>
<path d="M12860 1625 l0 -145 25 0 25 0 0 145 0 145 -25 0 -25 0 0 -145z"/>
<path d="M13015 1745 c-27 -26 -33 -72 -15 -105 6 -11 33 -26 64 -35 30 -9 57
-22 60 -30 9 -24 -4 -45 -32 -52 -20 -5 -30 0 -48 20 -30 35 -68 37 -59 5 12
-40 52 -68 99 -68 59 0 86 27 86 84 0 50 -10 61 -77 85 -40 14 -48 21 -48 41
0 21 6 26 32 28 23 2 34 -2 42 -17 9 -15 27 -20 48 -12 1 1 -3 15 -9 32 -18
53 -101 67 -143 24z"/>
<path d="M7590 1450 c0 -5 7 -10 16 -10 8 0 12 -4 9 -10 -3 -5 -15 -10 -26
-10 -10 0 -19 -5 -19 -11 0 -6 14 -9 33 -7 27 2 33 8 35 31 3 23 0 27 -22 27
-14 0 -26 -4 -26 -10z"/>
</g>
</svg>
